<?xml version="1.0"?>
<svg version="1.1" xmlns="http://www.w3.org/2000/svg" width="400" height="200" style=""><path fill="#ffffff" d="M21,99.19l11.31,0l0-2.28l-11.31,0q-2.22,0-3.72,1.74q-1.53,1.77-1.53,4.29q0,2.28,1.53,3.96q1.5,1.71,3.72,1.71l3,0l3.06,0q1.35,0,2.4,1.14q0.99,1.2,0.99,2.61q0,1.68-0.975,2.73t-2.415,1.05l-11.31,0l0,1.86l11.31,0q2.25,0,3.75-1.56t1.5-4.08q0-2.28-1.5-3.96q-1.53-1.68-3.75-1.68l-3.06,0l-3,0q-1.38,0-2.37-1.2q-1.02-1.11-1.02-2.58q0-1.68,0.975-2.715t2.415-1.035z M38.4252,112.24q0-1.44,1.02-2.61q1.02-1.23,2.46-1.23l0.39,0l5.61,0l0-1.86l-5.61,0l-0.39,0q-1.53-0.3-2.505-1.32t-0.975-2.43q0-1.77,1.035-2.805t2.835-1.035l10.2,0l0-1.89l-10.2,0q-2.31,0-4.02,1.71q-1.71,1.65-1.71,4.02q0,1.5,0.57,2.73t1.68,1.77q-1.11,0.81-1.68,2.13t-0.57,2.82q0,2.34,1.71,3.99q1.74,1.74,4.02,1.74l10.2,0l0-1.98l-10.2,0q-1.8,0-2.835-1.02t-1.035-2.73z M56.2704,118l1.86,0l0-12.72q0-2.52,1.92-4.5q1.92-1.92,4.44-1.92t4.5,1.92q1.92,1.98,1.92,4.5l0,12.72l1.86,0l0-12.72q0-3.42-2.43-5.85t-5.85-2.43q-3.36,0-5.79,2.43t-2.43,5.85l0,12.72z M82.1556,99.19l11.31,0l0-2.28l-11.31,0q-2.22,0-3.72,1.74q-1.53,1.77-1.53,4.29q0,2.28,1.53,3.96q1.5,1.71,3.72,1.71l3,0l3.06,0q1.35,0,2.4,1.14q0.99,1.2,0.99,2.61q0,1.68-0.975,2.73t-2.415,1.05l-11.31,0l0,1.86l11.31,0q2.25,0,3.75-1.56t1.5-4.08q0-2.28-1.5-3.96q-1.53-1.68-3.75-1.68l-3.06,0l-3,0q-1.38,0-2.37-1.2q-1.02-1.11-1.02-2.58q0-1.68,0.975-2.715t2.415-1.035z M99.5208,112.24q0-1.44,1.02-2.61q1.02-1.23,2.46-1.23l0.39,0l5.61,0l0-1.86l-5.61,0l-0.39,0q-1.53-0.3-2.505-1.32t-0.975-2.43q0-1.77,1.035-2.805t2.835-1.035l10.2,0l0-1.89l-10.2,0q-2.31,0-4.02,1.71q-1.71,1.65-1.71,4.02q0,1.5,0.57,2.73t1.68,1.77q-1.11,0.81-1.68,2.13t-0.57,2.82q0,2.34,1.71,3.99q1.74,1.74,4.02,1.74l10.2,0l0-1.98l-10.2,0q-1.8,0-2.835-1.02t-1.035-2.73z M122.226,99.19l11.31,0l0-2.28l-11.31,0q-2.22,0-3.72,1.74q-1.53,1.77-1.53,4.29q0,2.28,1.53,3.96q1.5,1.71,3.72,1.71l3,0l3.06,0q1.35,0,2.4,1.14q0.99,1.2,0.99,2.61q0,1.68-0.975,2.73t-2.415,1.05l-11.31,0l0,1.86l11.31,0q2.25,0,3.75-1.56t1.5-4.08q0-2.28-1.5-3.96q-1.53-1.68-3.75-1.68l-3.06,0l-3,0q-1.38,0-2.37-1.2q-1.02-1.11-1.02-2.58q0-1.68,0.975-2.715t2.415-1.035z"/><path fill="#" d=""/></svg>
